<?xml version="1.0" standalone="no"?>
<!DOCTYPE svg PUBLIC "-//W3C//DTD SVG 20010904//EN"
 "http://www.w3.org/TR/2001/REC-SVG-20010904/DTD/svg10.dtd">
<svg version="1.0" xmlns="http://www.w3.org/2000/svg"
 width="192.000000pt" height="192.000000pt" viewBox="0 0 192.000000 192.000000"
 preserveAspectRatio="xMidYMid meet">

<g transform="translate(0.000000,192.000000) scale(0.100000,-0.100000)"
fill="#000000" stroke="none">
<path d="M604 1563 c-226 -130 -325 -193 -333 -210 -6 -13 -11 -48 -11 -78 l0
-54 -82 -4 c-46 -1 155 -3 447 -3 495 1 501 1 93 3 l-438 3 0 59 c0 42 5 64
18 78 28 32 629 373 657 373 27 0 642 -350 663 -377 6 -9 12 -43 12 -75 l0
-58 -182 -3 c-108 -1 -70 -3 92 -3 151 0 238 2 193 3 l-83 4 0 58 c0 43 -5 65
-20 84 -29 37 -641 387 -677 387 -18 0 -141 -66 -349 -187z"/>
<path d="M640 1534 c-168 -96 -313 -183 -322 -191 -12 -11 -18 -31 -18 -60 0
-39 2 -43 24 -43 21 0 25 5 28 37 l3 38 240 138 c132 76 267 154 301 173 l60
34 300 -173 299 -172 3 -38 c3 -32 7 -37 28 -37 22 0 24 4 24 43 0 29 -6 49
-17 60 -25 21 -624 367 -638 367 -6 0 -148 -79 -315 -176z"/>
<path d="M946 1593 c-5 -14 -15 -23 -28 -23 -18 0 -19 -2 -7 -17 8 -9 13 -25
11 -35 -3 -17 0 -18 14 -10 12 7 25 7 37 0 15 -8 18 -6 15 10 -2 10 3 26 11
35 12 15 11 17 -6 17 -11 0 -24 10 -30 23 l-10 22 -7 -22z"/>
<path d="M888 1439 c-10 -5 -30 -31 -44 -57 -30 -52 -73 -102 -87 -102 -5 0 3
21 18 46 17 30 24 49 17 56 -13 13 -72 -69 -72 -99 0 -29 26 -40 53 -24 15 10
21 10 27 1 9 -15 30 -4 30 16 0 17 68 94 84 94 6 0 -3 -14 -21 -30 -29 -27
-31 -32 -22 -60 12 -33 38 -40 60 -14 11 14 13 14 21 0 10 -18 39 -21 55 -5 8
8 13 8 17 0 12 -18 23 -12 36 18 13 33 67 88 76 78 3 -3 -1 -16 -10 -29 -34
-49 -7 -100 34 -63 16 15 22 15 35 5 12 -10 18 -10 30 0 13 11 14 10 9 -4 -3
-9 -14 -16 -24 -16 -21 0 -44 -25 -35 -40 13 -21 50 -8 102 36 29 25 58 55 64
67 8 16 0 12 -26 -13 l-37 -35 16 32 c29 58 12 73 -31 27 -13 -14 -27 -23 -31
-19 -9 9 54 65 73 65 19 0 19 16 0 24 -26 10 -61 -11 -105 -63 -52 -61 -68
-66 -40 -11 11 21 20 46 20 54 0 20 -25 27 -46 11 -15 -10 -22 -11 -33 -2 -11
9 -16 8 -25 -8 -18 -31 -84 -100 -90 -94 -3 3 6 22 20 43 16 23 23 44 19 54
-6 14 -10 13 -28 -12 -46 -62 -74 -89 -85 -82 -20 12 -13 30 19 48 40 23 36
53 -7 53 -30 0 -31 1 -16 23 18 27 6 46 -20 31z"/>
<path d="M589 1401 c-28 -28 -37 -51 -21 -51 4 0 15 9 24 20 18 20 64 37 74
27 12 -11 -9 -29 -27 -24 -23 6 -69 -45 -69 -77 0 -51 59 -62 110 -20 29 25
31 30 26 80 -5 68 -10 74 -52 74 -26 0 -44 -8 -65 -29z m75 -92 c-34 -35 -67
-39 -62 -8 2 14 15 26 38 33 49 17 56 9 24 -25z"/>
<path d="M790 1415 c0 -8 7 -15 15 -15 8 0 15 7 15 15 0 8 -7 15 -15 15 -8 0
-15 -7 -15 -15z"/>
<path d="M1020 1415 c0 -8 7 -15 15 -15 8 0 15 7 15 15 0 8 -7 15 -15 15 -8 0
-15 -7 -15 -15z"/>
<path d="M108 1185 c-3 -3 0 -38 7 -78 7 -39 23 -138 35 -219 l22 -148 69 0
68 0 6 33 c25 138 63 402 59 409 -8 12 -62 10 -69 -3 -7 -10 -54 -296 -55
-329 -1 -45 -20 29 -39 160 -29 189 -26 180 -65 180 -18 0 -35 -2 -38 -5z"/>
<path d="M417 1184 c-4 -4 -7 -106 -7 -226 l0 -218 45 0 45 0 -2 223 -3 222
-35 3 c-20 2 -39 0 -43 -4z"/>
<path d="M547 1184 c-4 -4 -7 -106 -7 -226 l0 -218 100 0 100 0 0 40 0 40 -55
0 -55 0 -2 183 -3 182 -35 3 c-20 2 -39 0 -43 -4z"/>
<path d="M777 1184 c-4 -4 -7 -106 -7 -226 l0 -218 100 0 100 0 0 40 0 40 -55
0 -55 0 -2 183 -3 182 -35 3 c-20 2 -39 0 -43 -4z"/>
<path d="M1055 1168 c-3 -13 -19 -104 -36 -203 -16 -99 -33 -190 -36 -202 -5
-21 -2 -23 36 -23 42 0 44 2 53 65 3 17 11 20 48 20 37 0 45 -3 48 -20 9 -63
11 -65 53 -65 39 0 40 1 35 28 -3 15 -19 106 -36 202 -16 96 -32 185 -35 198
-5 20 -11 22 -65 22 -54 0 -60 -2 -65 -22z m94 -245 c1 -8 -11 -13 -29 -13
-16 0 -30 3 -30 7 0 16 22 139 27 153 5 12 29 -101 32 -147z"/>
<path d="M1330 1154 l-40 -36 0 -157 0 -157 33 -32 c30 -29 39 -32 94 -32 52
0 66 4 92 26 31 26 31 26 31 125 l0 99 -60 0 -60 0 0 -40 c0 -33 3 -40 20 -40
17 0 20 -7 20 -45 l0 -45 -40 0 -40 0 0 140 0 140 40 0 c36 0 40 -2 40 -25 0
-22 4 -25 40 -25 40 0 40 0 40 39 0 33 -6 44 -37 70 -30 25 -47 31 -85 31 -41
0 -54 -5 -88 -36z"/>
<path d="M1587 1184 c-4 -4 -7 -106 -7 -226 l0 -218 115 0 115 0 0 40 0 40
-70 0 -70 0 0 50 0 50 45 0 45 0 0 40 0 40 -45 0 -45 0 0 50 0 50 71 0 70 0
-3 43 -3 42 -106 3 c-58 1 -108 -1 -112 -4z"/>
<path d="M260 640 c3 -42 11 -75 20 -84 8 -8 156 -96 328 -196 242 -139 320
-180 347 -180 27 0 105 41 348 181 171 99 319 187 327 195 20 19 31 154 13
154 -9 0 -13 -19 -13 -63 0 -48 -4 -68 -17 -80 -10 -8 -155 -95 -323 -193
-210 -122 -314 -177 -335 -177 -21 0 -123 54 -335 177 -167 97 -313 184 -322
193 -14 12 -18 32 -18 80 0 44 -4 63 -13 63 -9 0 -11 -18 -7 -70z"/>
<path d="M641 657 c14 -107 87 -204 188 -250 65 -30 187 -30 252 0 69 31 128
90 161 158 34 73 39 145 9 145 -14 0 -19 -10 -24 -49 -11 -91 -66 -165 -156
-212 -33 -17 -60 -22 -115 -22 -84 0 -128 16 -186 69 -51 46 -79 100 -87 165
-5 42 -9 49 -28 49 -20 0 -21 -3 -14 -53z"/>
<path d="M917 690 c9 -33 81 -40 75 -7 -1 8 5 18 15 20 16 4 16 5 -1 6 -10 0
-24 -6 -30 -15 -12 -15 -46 -10 -46 7 0 5 -4 9 -9 9 -5 0 -7 -9 -4 -20z"/>
<path d="M300 642 c0 -21 6 -45 13 -54 17 -23 620 -368 642 -368 22 0 625 345
643 368 6 9 12 33 12 54 0 34 -3 38 -25 38 -22 0 -25 -4 -25 -33 0 -32 -3 -34
-299 -205 -164 -94 -302 -172 -306 -172 -5 0 -143 77 -307 172 -295 171 -298
173 -298 205 0 29 -3 33 -25 33 -22 0 -25 -4 -25 -38z"/>
</g>
</svg>
